<?xml version="1.0" standalone="yes"?>
<svg xmlns="http://www.w3.org/2000/svg" width="1080" height="1080">
<path style="fill:#010101; stroke:none;" d="M0 0L0 1080L1080 1080L1080 0L0 0z"/>
<path style="fill:#f39b01; stroke:none;" d="M365 358C351.7 363.034 338.997 373.964 328 382.804C297.997 406.923 272.409 435.984 252.6 469C175.948 596.757 201.026 766.399 310 867.911C364.03 918.24 433.802 947.864 507 954.83C638.349 967.33 768.368 889.811 825.258 772C840.398 740.648 849.273 706.404 854 672C855.395 661.845 861.153 645.925 853.606 637.105C847.928 630.47 837.945 631 830 631L772 631L535 631L549.709 654L578.579 695L668 822C647.568 827.898 630.257 844.519 610 851.947C551.304 873.471 488.286 869.433 432 842.68C406.142 830.389 381.273 811.642 362.576 790C289.949 705.929 278.594 580.969 348.425 491C366.841 467.273 389.499 447.218 415 431.424C492.496 383.428 594.401 391.439 667 444.884C682.748 456.477 697.175 469.871 709.576 485C724.955 503.764 738.035 524.335 761 534.688C786.417 546.146 815.578 540.129 841 532C835.618 506.254 820.083 479.665 805.667 458C771.597 406.802 724.007 366.943 668 341.694C648.427 332.871 626.411 323.883 605 321C603.452 301.39 595.723 278.098 606.454 260C613.79 247.626 625.668 242.048 636 232.826C653.094 217.57 663.513 197.278 661.911 174C661.259 164.544 656.282 150.187 649.61 143.228C645.576 139.022 636.692 139.277 635.362 146.018C634.134 152.24 641.563 160.126 643.48 166C647.725 179.009 645.827 193.104 639.124 205C629.991 221.209 613.545 228.236 601.089 241.039C590.958 251.453 585.838 264.767 584 279C561.451 279.187 538.462 283.986 516 286.075C509.093 286.717 496.663 290.864 490.148 288.357C485.613 286.612 486.299 277.02 485.925 273C484.883 261.788 486.405 238.603 480.012 229.279C475.719 223.018 465.666 227.008 465.359 234.004C464.532 252.861 470.948 272.079 471 291C448.474 291.967 425.389 295.534 403 298.285C396.485 299.085 382.026 303.427 376.225 299.971C368.816 295.559 365.343 280.704 357.996 274.439C336.515 256.121 305.902 254.133 295.09 224C279.774 181.312 326.807 148.724 364 145.17C375.916 144.031 386.418 147.44 398 149C392.968 158.751 384.58 165.912 381.761 177C380.132 183.406 383.63 189.197 390.96 187.156C398.995 184.918 404.427 166.365 410.174 160.004C424.067 144.623 446.358 134.943 467 134.039C491.13 132.983 514.505 140.722 530.826 159C535.511 164.246 542.358 175.823 550.566 168.297C554.502 164.687 551.616 159.605 549.3 156C543.736 147.339 535.644 141.615 528 135C537.582 132.24 546.113 127.164 556 124.887C566.591 122.449 576.338 123.449 587 123.896C591.42 124.081 597.543 122.521 597.543 117.011C597.543 108.246 582.528 110 577 110C562.336 110 548.799 111.465 535 116.811C528.131 119.472 518.365 127.761 511 127.027C490.874 125.02 473.935 118.353 453 122.261C443.224 124.086 434.043 127.356 425 131.436C420.526 133.455 415.972 137.453 411 138.037C405.424 138.692 398.52 134.87 393 133.805C383.071 131.889 373.082 131.768 363 132.015C322.084 133.017 280.216 162.649 276.17 205C273.807 229.732 289.254 253.007 310 265.138C323.726 273.164 338.952 276.607 349.815 289C365.457 306.845 360.934 336.097 365 358z"/>
<path style="fill:#0377ad; stroke:none;" d="M617.044 121.743C607.539 125.565 615.675 136.772 623.891 133.258C632.705 129.487 625.159 118.48 617.044 121.743M554.015 217.707C541.493 221.87 527.845 242.876 524.428 255C522.532 261.729 521.414 276.353 532.96 273.156C539.793 271.264 539.735 262.627 541.439 257C543.762 249.331 548.476 242.687 554.015 237C557.298 233.628 562.859 229.747 564.149 225.001C565.74 219.144 558.657 216.164 554.015 217.707M388.015 235.613C384.002 236.598 380.966 240.885 383.043 244.896C386.542 251.653 398.413 255.795 403.985 261.09C410.662 267.435 412.244 276.057 417.843 282.566C419.976 285.047 423.976 285.408 426.981 284.566C435.966 282.046 430.576 270.261 427.687 265C422.021 254.683 401.876 232.209 388.015 235.613z"/>
<path style="fill:#010101; stroke:none;" d="M377 315L380 349C429.69 328.312 475.615 313.472 530 312.129C549.452 311.648 568.681 316.601 588 317L585 292L512 300.169L377 315z"/>
<path style="fill:#f5c168; stroke:none;" d="M625 658L625 659L634 659L625 658M734 658L734 659L744 659L734 658M622 659L623 660L622 659z"/>
<path style="fill:#f5f4f4; stroke:none;" d="M623 659.529C593.615 666.322 605.463 711.89 635 705.481C665.515 698.861 653.364 652.51 623 659.529z"/>
<path style="fill:#f5c168; stroke:none;" d="M636 659L637 660L636 659M729.667 659.333L730.333 659.667L729.667 659.333z"/>
<path style="fill:#f5f4f4; stroke:none;" d="M731 659.518C686.783 668.951 703.186 737.22 747 727.32C791.14 717.347 774.843 650.164 731 659.518z"/>
<path style="fill:#f5c168; stroke:none;" d="M747.667 659.333L748.333 659.667L747.667 659.333M619 660L620 661L619 660M639 660L640 661L639 660M726.667 660.333L727.333 660.667L726.667 660.333M750.667 660.333L751.333 660.667L750.667 660.333M617 661L618 662L617 661M641 661L642 662L641 661M724 661L725 662L724 661M753 661L754 662L753 661M642 662L643 663L642 662M722 662L723 663L722 662M755 662L756 663L755 662M614 663L615 664L614 663M644 663L645 664L644 663M720 663L721 664L720 663M757 663L758 664L757 663M613 664L614 665L613 664M645 664L646 665L645 664M719 664L720 665L719 664M758 664L759 665L758 664M612 665L613 666L612 665M646 665L647 666L646 665M611 666L612 667L611 666M647 666L648 667L647 666M716 666L717 667L716 666M761 666L762 667L761 666M610 667L611 668L610 667M715 667L716 668L715 667M762 667L763 668L762 667M714 668L715 669L714 668M763 668L764 669L763 668M649 669L650 670L649 669M713 669L714 670L713 669M764 669L765 670L764 669M608 670L609 671L608 670M650 670L651 671L650 670M712 670L713 671L712 670M765 670L766 671L765 670M711 671L712 672L711 671M766 671L767 672L766 671M607 672L608 673L607 672M651.333 672.667L651.667 673.333L651.333 672.667M606.333 674.667L606.667 675.333L606.333 674.667M709 674L710 675L709 674M768 674L769 675L768 674M652.333 675.667L652.667 676.333L652.333 675.667M708 676L709 677L708 676M769 676L770 677L769 676M605 678L605 687L606 687L605 678M707 678L708 679L707 678M770 678L771 679L770 678M653 679L653 686L654 686L653 679M706 680L707 681L706 680M771 680L772 681L771 680M705 683L706 684L705 683M772 683L773 684L772 683M704 686L704 689L705 689L704 686M773 686L773 689L774 689L773 686M652.333 688.667L652.667 689.333L652.333 688.667M606 689L607 690L606 689M651.333 691.667L651.667 692.333L651.333 691.667M607 692L608 693L607 692M608 694L609 695L608 694M649 695L650 696L649 695M610 697L611 698L610 697M611 698L612 699L611 698M647 698L648 699L647 698M704 698L704 701L705 701L704 698M773 698L773 701L774 701L773 698M612 699L613 700L612 699M646 699L647 700L646 699M613 700L614 701L613 700M645 700L646 701L645 700M614 701L615 702L614 701M642 702L643 703L642 702M617 703L618 704L617 703M641 703L642 704L641 703M705 703L706 704L705 703M772 703L773 704L772 703M619 704L620 705L619 704M638.667 704.333L639.333 704.667L638.667 704.333M622 705L623 706L622 705M635.667 705.333L636.333 705.667L635.667 705.333M626 706L626 707L633 707L626 706M706 706L707 707L706 706M771 706L772 707L771 706M707 708L708 709L707 708M770 708L771 709L770 708M708 710L709 711L708 710M769 710L770 711L769 710M709 712L710 713L709 712M768 712L769 713L768 712M710 713L711 714L710 713M767 713L768 714L767 713M712 716L713 717L712 716M765 716L766 717L765 716M713 717L714 718L713 717M764 717L765 718L764 717M714 718L715 719L714 718M763 718L764 719L763 718M715 719L716 720L715 719M762 719L763 720L762 719M719 722L720 723L719 722M758 722L759 723L758 722M722 724L723 725L722 724M755 724L756 725L755 724M724.667 725.333L725.333 725.667L724.667 725.333M752.667 725.333L753.333 725.667L752.667 725.333M727 726L728 727L727 726M750 726L751 727L750 726M730.667 727.333L731.333 727.667L730.667 727.333M746.667 727.333L747.333 727.667L746.667 727.333M735 728L735 729L743 729L735 728M683 735L683 736L690 736L683 735M679.667 736.333L680.333 736.667L679.667 736.333z"/>
<path style="fill:#f5f4f4; stroke:none;" d="M681 736.518C649.814 743.183 661.028 791.102 692 784.482C723.328 777.786 712.349 729.818 681 736.518z"/>
<path style="fill:#f5c168; stroke:none;" d="M693 736L694 737L693 736M676.667 737.333L677.333 737.667L676.667 737.333M696 737L697 738L696 737M674 738L675 739L674 738M698 738L699 739L698 738M700 739L701 740L700 739M671 740L672 741L671 740M701 740L702 741L701 740M670 741L671 742L670 741M702 741L703 742L702 741M669 742L670 743L669 742M668 743L669 744L668 743M667 744L668 745L667 744M705 744L706 745L705 744M666 745L667 746L666 745M706 745L707 746L706 745M707 746L708 747L707 746M665 747L666 748L665 747M664 748L665 749L664 748M708 748L709 749L708 748M663.333 750.667L663.667 751.333L663.333 750.667M709 750L710 751L709 750M662.333 753.667L662.667 754.333L662.333 753.667M710 753L711 754L710 753M711 757L711 764L712 764L711 757M661 758L661 763L662 763L661 758M662.333 766.667L662.667 767.333L662.333 766.667M710 767L711 768L710 767M663 769L664 770L663 769M709 770L710 771L709 770M664 772L665 773L664 772M708 772L709 773L708 772M665 773L666 774L665 773M666 775L667 776L666 775M706 775L707 776L706 775M667 776L668 777L667 776M705 776L706 777L705 776M668 777L669 778L668 777M669 778L670 779L669 778M670 779L671 780L670 779M702 779L703 780L702 779M671 780L672 781L671 780M701 780L702 781L701 780M673 781L674 782L673 781M674 782L675 783L674 782M698 782L699 783L698 782M676.667 783.333L677.333 783.667L676.667 783.333M695.667 783.333L696.333 783.667L695.667 783.333M679.667 784.333L680.333 784.667L679.667 784.333M692.667 784.333L693.333 784.667L692.667 784.333M684 785L684 786L689 786L684 785z"/>
</svg>
